<svg xmlns="http://www.w3.org/2000/svg" viewBox="0 0 50 60" fill="white">
  <path d="M35.1185 0H24.2612V12.4912H35.1185V0Z"/>
  <path d="M24.2614 22.6501H35.1188V40.267C35.1684 44.5061 33.9619 48.6643 31.6528 52.2129C29.3727 55.6608 24.9713 59.763 16.8284 59.763C7.95876 59.763 2.78901 55.5685 -0.000488281 53.2699L6.84797 44.8222C9.57065 47.0453 12.1931 48.8741 16.8701 48.8741C20.4113 48.8741 21.8227 47.4312 22.6495 46.1728C23.7736 44.425 24.355 42.381 24.3199 40.3006L24.2614 22.6501Z"/>
  <path d="M18.724 14.7646H7.8667V25.6703H18.724V14.7646Z"/>
  <path d="M40.8068 54.6458C40.8068 56.9695 39.6292 58.2195 37.9839 58.2195C36.3386 58.2195 35.2612 56.7346 35.2612 54.7632C35.2612 52.7918 36.372 51.2314 38.0758 51.2314C39.7795 51.2314 40.8068 52.7666 40.8068 54.6458ZM36.5223 54.738C36.5223 56.139 37.0819 57.1708 38.0424 57.1708C39.0028 57.1708 39.5457 56.0803 39.5457 54.6542C39.5457 53.4042 39.0446 52.2297 38.0424 52.2297C37.0402 52.2297 36.5223 53.3622 36.5223 54.738Z"/>
  <path d="M42.961 51.3323V58.1106H41.7583V51.3323H42.961Z"/>
  <path d="M44.2642 58.1106V51.3323H45.6004L47.037 54.1258C47.4068 54.8563 47.7358 55.6068 48.0225 56.3741C47.9473 55.5352 47.9139 54.5704 47.9139 53.4966V51.3323H49.0163V58.1106H47.7719L46.3187 55.2583C45.934 54.5091 45.591 53.7389 45.2914 52.9513C45.2914 53.7902 45.3499 54.7382 45.3499 55.9043V58.1022L44.2642 58.1106Z"/>
</svg>